<?xml version="1.0" encoding="UTF-8" standalone="no"?>
<svg
   xmlns:dc="http://purl.org/dc/elements/1.1/"
   xmlns:cc="http://creativecommons.org/ns#"
   xmlns:rdf="http://www.w3.org/1999/02/22-rdf-syntax-ns#"
   xmlns:svg="http://www.w3.org/2000/svg"
   xmlns="http://www.w3.org/2000/svg"
   id="svg8"
   version="1.1"
   viewBox="0 0 26.458333 26.458334"
   height="100"
   width="100">
  <defs
     id="defs2" />
  <metadata
     id="metadata5">
    <rdf:RDF>
      <cc:Work
         rdf:about="">
        <dc:format>image/svg+xml</dc:format>
        <dc:type
           rdf:resource="http://purl.org/dc/dcmitype/StillImage" />
        <dc:title></dc:title>
      </cc:Work>
    </rdf:RDF>
  </metadata>
  <g
     id="layer1">
    <g
       style="stroke:#ffffff"
       transform="matrix(1.4891537,0,0,1.6291518,-5.4407987,-7.7217983)"
       id="g865">
      <path
         style="fill:none;fill-opacity:0;stroke:#ffffff;stroke-width:0.339736;stroke-miterlimit:4;stroke-dasharray:none"
         d="m 5.1362369,6.3678545 h 0.015565 A 1.0512463,1.0512463 45 0 1 6.2030485,7.4191008 V 18.291509 a 1.0607259,1.0607259 135 0 1 -1.0607259,1.060726 h -0.00609 z"
         id="rect841" />
      <path
         transform="matrix(0.17767362,0,0,0.16240558,3.7293783,4.739766)"
         d="m 14.029297,15.742188 v 5.572265 h 69.421875 v -0.166015 a 4.3392947,4.298401 0 0 1 -0.900391,-2.619141 4.3392947,4.298401 0 0 1 0.900391,-2.623047 v -0.164062 z"
         style="fill:none;fill-opacity:0;stroke:#ffffff;stroke-width:2;stroke-miterlimit:4;stroke-dasharray:none"
         id="rect843" />
      <ellipse
         ry="0.69808429"
         rx="0.77097821"
         style="fill:none;fill-opacity:0;stroke:#ffffff;stroke-width:0.339736;stroke-miterlimit:4;stroke-dasharray:none"
         id="path845"
         cx="19.167383"
         cy="7.7488995" />
      <rect
         style="fill:none;fill-opacity:0;stroke:#ffffff;stroke-width:0.509604;stroke-miterlimit:4;stroke-dasharray:none"
         id="rect847"
         width="9.6217022"
         height="4.443356"
         x="7.784225"
         y="10.831252" />
      <path
         style="fill:none;stroke:#ffffff;stroke-width:0.339736;stroke-linecap:butt;stroke-linejoin:miter;stroke-miterlimit:4;stroke-dasharray:none;stroke-opacity:1"
         d="M 9.2207982,10.831252 V 7.3076217"
         id="path849" />
      <path
         id="path851"
         d="M 15.969354,10.831252 V 7.3076217"
         style="fill:none;stroke:#ffffff;stroke-width:0.339736;stroke-linecap:butt;stroke-linejoin:miter;stroke-miterlimit:4;stroke-dasharray:none;stroke-opacity:1" />
    </g>
  </g>
</svg>
